<?xml version="1.0" standalone="no"?>
<!DOCTYPE svg PUBLIC "-//W3C//DTD SVG 20010904//EN"
 "http://www.w3.org/TR/2001/REC-SVG-20010904/DTD/svg10.dtd">
<svg version="1.0" xmlns="http://www.w3.org/2000/svg"
 width="250.000000pt" height="219.000000pt" viewBox="0 0 250.000000 219.000000"
 preserveAspectRatio="xMidYMid meet">
<metadata>
Created by potrace 1.16, written by Peter Selinger 2001-2019
</metadata>
<g transform="translate(0.000000,219.000000) scale(0.100000,-0.100000)"
fill="#000000" stroke="none">
<path d="M1125 1954 c-210 -59 -257 -78 -376 -158 -103 -68 -215 -198 -276
-321 -118 -235 -109 -574 20 -790 114 -192 220 -291 399 -375 158 -74 388 -92
572 -46 157 40 273 105 386 217 78 76 113 126 168 234 73 146 98 269 89 435
-10 170 -48 278 -153 436 -104 158 -251 266 -449 330 -97 31 -125 36 -235 39
-69 2 -134 2 -145 -1z m252 -165 c186 -25 339 -155 360 -305 4 -28 12 -48 24
-54 15 -9 17 -20 12 -82 l-5 -73 33 -14 c51 -22 107 -63 119 -90 8 -18 4 -55
-20 -174 -32 -155 -56 -219 -87 -232 -10 -5 -56 -11 -102 -14 l-85 -6 -11 -45
c-11 -41 -34 -91 -68 -145 -23 -38 -99 -104 -144 -125 -105 -49 -236 -47 -332
5 -69 38 -146 137 -181 233 l-28 77 -83 5 c-124 8 -136 19 -169 160 -33 145
-43 226 -31 263 10 29 61 75 116 102 17 9 21 22 23 80 2 42 8 73 16 79 8 6 17
32 20 58 13 89 108 204 211 256 35 17 63 25 170 46 41 8 166 6 242 -5z"/>
<path d="M1145 1773 c-140 -31 -205 -62 -272 -130 -40 -41 -80 -118 -89 -171
-9 -58 10 -60 47 -5 68 102 132 154 245 200 60 24 82 28 169 28 190 0 321 -71
416 -225 49 -80 67 -62 37 38 -18 60 -27 75 -73 126 -25 27 -121 91 -158 105
-88 34 -249 51 -322 34z"/>
<path d="M1115 1647 c-127 -43 -211 -110 -272 -217 -39 -69 -45 -97 -45 -215
0 -117 7 -151 33 -158 10 -3 20 -14 20 -26 1 -12 2 -27 3 -33 1 -7 -4 -19 -10
-25 -10 -10 -9 -27 2 -75 8 -35 19 -73 24 -86 6 -13 8 -28 5 -33 -4 -5 -2 -9
3 -9 5 0 14 -19 21 -42 31 -105 101 -206 171 -248 77 -45 95 -50 175 -50 68 0
88 4 133 28 126 67 194 175 262 415 20 72 20 80 6 96 -22 25 -11 80 19 91 28
11 35 36 35 130 0 95 -20 175 -66 256 -43 77 -103 132 -192 175 -61 30 -77 33
-177 36 -73 2 -123 -2 -150 -10z"/>
</g>
</svg>
