<?xml version="1.0" standalone="no"?>
<!DOCTYPE svg PUBLIC "-//W3C//DTD SVG 20010904//EN"
 "http://www.w3.org/TR/2001/REC-SVG-20010904/DTD/svg10.dtd">
<svg version="1.0" xmlns="http://www.w3.org/2000/svg"
 width="250.000000pt" height="253.000000pt" viewBox="0 0 250.000000 253.000000"
 preserveAspectRatio="xMidYMid meet">
<metadata>
Created by potrace 1.16, written by Peter Selinger 2001-2019
</metadata>
<g transform="translate(0.000000,253.000000) scale(0.100000,-0.100000)"
fill="#000000" stroke="none">
<path d="M1145 2444 c-287 -19 -563 -153 -765 -371 -65 -69 -100 -111 -100
-118 0 -3 -5 -11 -11 -18 -13 -16 -102 -152 -98 -152 1 0 -5 -16 -13 -35 -37
-86 -49 -120 -69 -200 -27 -111 -30 -140 -30 -295 -1 -148 3 -192 26 -290 9
-38 18 -77 20 -85 5 -28 103 -240 114 -250 13 -11 45 -65 43 -72 -1 -5 3 -8
10 -8 6 0 9 -2 6 -5 -8 -8 187 -205 250 -254 30 -23 82 -57 115 -76 34 -20 69
-40 77 -45 26 -15 176 -69 226 -81 133 -31 347 -39 489 -20 73 10 89 14 170
38 381 112 722 473 808 855 71 310 26 625 -125 888 -27 46 -52 87 -56 90 -4 3
-24 28 -44 55 -57 79 -209 217 -297 272 -113 70 -275 134 -406 161 -55 12
-260 21 -340 16z m285 -413 c133 -36 206 -74 278 -145 94 -93 121 -167 122
-342 0 -83 -3 -104 -17 -115 -15 -12 -16 -12 -9 6 17 43 17 124 2 211 -19 111
-45 174 -82 203 -16 12 -49 41 -74 64 -92 85 -282 130 -452 108 -266 -36 -435
-126 -481 -256 -22 -63 -23 -196 -2 -255 17 -47 20 -90 7 -90 -13 0 -54 180
-54 235 0 115 44 192 151 263 108 73 248 115 441 135 31 3 123 -9 170 -22z
m226 -319 c-8 -61 8 -145 39 -211 14 -28 25 -58 25 -66 0 -32 -18 -12 -49 57
-26 55 -34 86 -35 135 0 34 -4 63 -7 63 -4 0 -33 -17 -65 -38 -73 -47 -127
-61 -271 -67 -97 -5 -113 -3 -113 10 0 11 -11 15 -42 15 -80 -1 -233 -27 -285
-50 l-52 -22 -7 -59 c-8 -76 -24 -66 -24 15 0 52 3 65 18 69 205 65 284 79
395 71 68 -5 87 -10 87 -22 0 -12 10 -14 53 -9 57 7 72 10 102 21 11 5 34 13
50 19 46 17 138 73 159 96 11 12 21 21 24 21 2 0 2 -22 -2 -48z m-986 -358 c0
-9 -9 -23 -21 -33 -28 -22 -27 -82 1 -186 12 -44 22 -85 23 -91 1 -19 51 -86
72 -98 28 -16 31 -22 45 -90 34 -175 48 -213 126 -321 106 -148 143 -170 314
-180 144 -8 181 3 251 77 124 131 191 261 223 436 4 22 23 49 54 80 45 44 57
63 92 147 6 17 14 62 17 101 5 62 3 77 -17 113 -28 48 -20 63 18 34 24 -18 27
-27 30 -89 4 -87 -9 -135 -67 -253 -31 -63 -53 -96 -69 -102 -26 -10 -31 -22
-68 -154 -51 -188 -103 -267 -237 -359 l-68 -46 -147 0 c-131 0 -151 2 -182
21 -42 25 -89 73 -151 154 -86 113 -108 164 -139 323 -10 47 -17 62 -30 62
-36 0 -117 166 -139 283 -18 96 9 185 57 187 6 0 12 -7 12 -16z m520 -9 c43
-32 90 -32 127 -1 28 24 31 24 251 24 l222 0 0 -38 c0 -29 -6 -41 -24 -53 -22
-15 -29 -35 -42 -127 -6 -43 -30 -78 -74 -107 -29 -20 -46 -23 -135 -23 -124
0 -142 10 -188 109 -39 84 -54 101 -88 101 -25 0 -32 -9 -71 -87 -39 -80 -46
-89 -83 -101 -45 -16 -219 -11 -252 6 -24 13 -46 65 -66 156 -11 45 -23 73
-36 83 -14 10 -21 25 -21 49 l0 34 223 0 c222 0 223 0 257 -25z"/>
</g>
</svg>
