<?xml version="1.0" standalone="no"?>
<!DOCTYPE svg PUBLIC "-//W3C//DTD SVG 20010904//EN"
 "http://www.w3.org/TR/2001/REC-SVG-20010904/DTD/svg10.dtd">
<svg version="1.0" xmlns="http://www.w3.org/2000/svg"
 width="484.000000pt" height="250.000000pt" viewBox="0 0 484.000000 250.000000"
 preserveAspectRatio="xMidYMid meet">
<metadata>
Created by potrace 1.16, written by Peter Selinger 2001-2019
</metadata>
<g transform="translate(0.000000,250.000000) scale(0.100000,-0.100000)"
fill="#000000" stroke="none">
<path d="M0 1343 l0 -1158 2420 3 2420 2 0 1155 0 1155 -2420 0 -2420 0 0
-1157z m4227 427 c252 -253 459 -467 461 -474 2 -7 -3 -20 -11 -27 -8 -8 -213
-211 -456 -452 l-441 -437 -340 0 c-268 0 -340 3 -340 13 0 7 149 161 330 342
l331 330 -363 5 -363 5 -7 40 c-4 22 -7 136 -7 253 -1 163 2 212 12 212 6 1
162 1 346 0 316 -1 333 0 320 17 -8 9 -144 149 -304 310 -159 162 -291 300
-293 308 -3 13 42 15 332 15 l335 0 458 -460z m-1607 -92 l-1 -533 -100 -70
c-55 -38 -106 -75 -113 -82 -7 -6 -42 -30 -76 -52 l-63 -41 -399 2 c-219 1
-403 5 -409 9 -7 4 19 29 67 63 44 31 129 93 191 137 l112 80 3 77 3 77 90 12
c50 6 113 12 141 12 61 1 72 11 83 80 4 28 11 54 15 58 4 4 28 -14 53 -39 l46
-47 10 -116 10 -116 46 3 46 3 -3 115 -4 115 -46 73 c-95 148 -87 129 -65 170
10 20 25 37 33 37 7 0 23 -18 36 -40 l22 -40 87 3 c112 4 137 13 133 50 -3 27
-3 27 -90 30 l-86 3 -26 55 c-14 30 -26 59 -26 65 0 5 -10 14 -22 18 -22 9
-22 9 -3 16 81 26 104 59 90 124 -12 56 -78 83 -140 57 -60 -26 -74 -92 -29
-145 l26 -31 -33 0 c-18 0 -88 -19 -156 -42 -110 -37 -124 -45 -129 -67 -3
-14 -10 -44 -15 -67 -15 -58 -8 -108 14 -112 31 -6 56 27 63 81 4 27 15 58 25
68 20 20 66 35 76 26 3 -4 -8 -35 -25 -69 -20 -40 -35 -93 -42 -145 -14 -93
-7 -88 -134 -92 l-76 -2 0 380 0 381 395 0 395 0 0 -532z m-1758 444 c-6 -85
10 -181 49 -292 16 -46 29 -86 29 -87 0 -2 4 -3 9 -3 5 0 12 19 16 43 8 44 83
217 95 217 4 0 10 -60 14 -132 4 -73 12 -160 18 -193 14 -80 41 -168 53 -172
11 -3 75 125 75 150 0 8 6 29 14 47 18 43 23 28 43 -125 36 -283 36 -297 5
-385 -17 -49 -67 -123 -104 -155 -28 -25 -125 -85 -137 -85 -4 0 -23 -8 -42
-17 -27 -14 -59 -18 -154 -18 -116 1 -122 2 -189 35 -104 52 -166 131 -213
270 -15 46 -18 85 -17 240 1 178 10 256 52 439 8 37 31 54 33 24 1 -10 5 6 10
35 14 81 25 94 38 46 6 -21 11 -50 11 -65 0 -29 34 -184 46 -214 7 -16 10 -12
16 25 19 127 62 256 113 335 34 54 101 119 114 110 5 -2 6 -36 3 -73z m118
-1352 c6 -4 10 -26 8 -51 l-3 -44 -150 -1 c-184 0 -177 1 -173 -26 3 -22 7
-23 153 -28 l150 -5 3 -42 3 -43 -156 0 -156 0 3 -37 3 -38 168 -3 167 -2 0
-45 0 -45 -260 0 c-143 0 -263 -1 -267 -2 -5 -2 -9 90 -11 204 -2 190 -1 207
15 211 28 8 490 5 503 -3z m298 -5 c15 -8 41 -33 57 -54 46 -60 53 -60 112 4
l52 57 97 2 c65 1 99 -3 101 -10 2 -7 -35 -50 -82 -98 -47 -47 -85 -90 -85
-96 0 -5 43 -53 97 -105 53 -53 93 -98 90 -102 -4 -3 -53 -5 -109 -5 l-103 2
-58 59 c-32 33 -64 57 -70 54 -7 -2 -32 -29 -57 -58 -40 -48 -50 -54 -97 -60
-45 -6 -162 1 -171 10 -2 2 42 49 99 105 l103 100 -92 93 c-51 51 -92 95 -92
99 0 20 172 23 208 3z m706 9 c14 -5 16 -33 16 -209 l0 -203 -72 -4 c-40 -2
-85 -2 -100 0 l-28 3 0 204 c0 203 0 204 23 208 36 7 144 8 161 1z m704 -6
c17 -14 16 -94 -2 -101 -8 -3 -52 -5 -100 -4 -67 2 -87 -1 -91 -13 -3 -8 -5
-71 -5 -140 1 -69 1 -132 1 -140 -1 -13 -18 -14 -101 -12 l-100 3 0 152 0 152
-76 -3 c-116 -5 -124 -1 -124 57 0 30 5 51 13 55 24 10 572 4 585 -6z"/>
<path d="M758 1777 c-8 -12 -28 -53 -43 -92 -25 -61 -29 -87 -33 -202 -2 -73
-8 -133 -12 -133 -5 0 -36 45 -70 101 -43 71 -65 98 -73 90 -6 -6 -10 -61 -11
-133 0 -122 10 -176 46 -240 16 -27 90 -109 95 -105 1 2 -4 25 -13 51 -20 57
-8 81 32 66 22 -9 24 -8 14 9 -14 27 -13 41 5 41 12 0 15 14 15 66 0 73 9 76
39 11 l19 -42 8 29 c4 15 4 110 0 210 -9 217 10 221 41 9 5 -33 33 -48 33 -18
0 8 7 15 15 15 8 0 15 -9 15 -19 0 -11 4 -22 9 -25 5 -3 12 -39 15 -78 4 -40
12 -93 18 -117 l11 -43 21 53 c12 29 26 54 32 56 16 5 34 -67 34 -136 0 -41
-6 -74 -19 -99 -21 -40 -68 -87 -97 -96 -11 -3 0 -3 23 -1 84 10 181 82 220
164 17 34 25 183 11 196 -4 4 -25 -7 -46 -24 -50 -39 -62 -39 -62 2 0 33 -36
154 -50 170 -4 5 -24 -6 -44 -24 -20 -17 -38 -30 -41 -28 -9 10 -64 128 -80
174 -9 28 -21 59 -25 70 -5 11 -12 35 -15 52 -8 42 -19 48 -37 20z"/>
</g>
</svg>
