<?xml version="1.0" standalone="no"?>
<!DOCTYPE svg PUBLIC "-//W3C//DTD SVG 20010904//EN"
 "http://www.w3.org/TR/2001/REC-SVG-20010904/DTD/svg10.dtd">
<svg version="1.0" xmlns="http://www.w3.org/2000/svg"
 width="250.000000pt" height="250.000000pt" viewBox="0 0 250.000000 250.000000"
 preserveAspectRatio="xMidYMid meet">
<metadata>
Created by potrace 1.16, written by Peter Selinger 2001-2019
</metadata>
<g transform="translate(0.000000,250.000000) scale(0.100000,-0.100000)"
fill="#000000" stroke="none">
<path d="M68 2481 c-16 -23 -29 -26 -38 -11 -28 46 -30 -23 -30 -1236 l0
-1234 1249 0 1248 0 0 1250 -1 1250 -1207 0 c-1168 0 -1208 -1 -1221 -19z
m2392 -1226 l0 -1205 -1210 0 -1210 0 0 1183 c0 650 4 1187 8 1192 23 32 48
33 1230 34 l1182 2 0 -1206z"/>
<path d="M160 2335 c0 -3 0 -490 0 -1082 l0 -1078 1085 -3 1085 -2 0 1085 0
1085 -1085 0 c-597 0 -1085 -2 -1085 -5z m730 -461 l0 -224 -55 0 c-30 0 -55
5 -55 10 0 6 20 10 44 10 24 0 46 4 48 10 2 5 2 95 0 200 l-3 190 -200 0 -199
0 2 -197 3 -198 43 -3 c59 -4 53 -22 -8 -22 l-49 0 -3 224 -3 224 218 0 217 0
0 -224z m-155 61 c28 -27 34 -85 13 -111 -33 -39 -41 -44 -69 -44 -45 0 -93
48 -93 95 0 75 96 114 149 60z m-8 -263 c12 -15 22 -31 22 -37 -1 -5 -1 -81 0
-167 1 -168 8 -189 43 -128 14 24 24 30 52 30 28 0 40 -7 60 -33 15 -19 26
-46 26 -60 0 -34 18 -35 30 -2 5 14 21 30 35 37 22 10 29 8 48 -11 13 -12 25
-27 26 -34 2 -15 9 -69 10 -79 2 -16 18 -7 31 18 20 35 58 53 94 43 16 -4 33
-14 37 -21 5 -7 9 -145 9 -306 0 -321 1 -317 -63 -371 -25 -21 -27 -28 -23
-77 l6 -54 -283 0 -283 0 -12 34 c-7 18 -41 80 -76 138 -35 58 -67 114 -70
125 -3 11 -16 30 -29 43 -21 23 -22 33 -25 232 l-3 208 27 25 c34 32 83 33
110 4 19 -21 22 -65 24 -291 0 -31 4 -38 20 -38 20 0 20 7 20 378 1 281 4 381
13 393 35 45 85 46 124 1z m1181 -97 c4 -50 50 -120 117 -177 37 -32 71 -58
76 -58 5 0 9 -34 9 -75 0 -60 -3 -73 -12 -65 -7 6 -35 25 -62 43 -55 36 -129
133 -145 193 -12 43 -15 147 -4 157 12 13 19 7 21 -18z m-222 -58 c34 -13 134
-99 138 -119 2 -7 13 -35 24 -61 12 -27 22 -54 22 -61 0 -8 12 -25 26 -40 15
-14 24 -26 21 -26 -13 0 50 -56 98 -87 l50 -33 -58 0 c-31 0 -57 4 -57 10 0 6
-8 10 -18 10 -9 0 -46 17 -81 38 -63 37 -65 39 -132 166 -48 92 -80 141 -114
172 l-47 44 49 -1 c26 0 62 -6 79 -12z m181 -482 c24 -11 43 -23 43 -27 0 -5
9 -8 19 -8 11 0 22 -4 26 -9 3 -5 39 -20 80 -33 l75 -23 0 -62 c0 -35 -4 -63
-10 -63 -28 0 -122 26 -167 45 -138 61 -270 222 -296 361 -5 27 3 21 91 -65
53 -53 116 -105 139 -116z m-139 -141 c4 -6 27 -24 52 -41 25 -17 54 -41 65
-53 24 -27 105 -81 158 -105 51 -24 35 -38 -45 -39 -104 -2 -150 18 -230 96
-95 91 -88 86 -165 113 -63 22 -66 25 -43 34 32 14 198 10 208 -5z m97 -310
c27 -12 78 -19 162 -22 l123 -5 0 -63 0 -63 -37 -3 c-93 -8 -243 30 -284 71
-8 9 -31 30 -51 47 -20 17 -47 51 -62 76 l-26 45 67 -33 c38 -18 86 -41 108
-50z"/>
</g>
</svg>
