<?xml version="1.0" standalone="no"?>
<!DOCTYPE svg PUBLIC "-//W3C//DTD SVG 20010904//EN"
 "http://www.w3.org/TR/2001/REC-SVG-20010904/DTD/svg10.dtd">
<svg version="1.0" xmlns="http://www.w3.org/2000/svg"
 width="250.000000pt" height="250.000000pt" viewBox="0 0 250.000000 250.000000"
 preserveAspectRatio="xMidYMid meet">
<metadata>
Created by potrace 1.16, written by Peter Selinger 2001-2019
</metadata>
<g transform="translate(0.000000,250.000000) scale(0.100000,-0.100000)"
fill="#000000" stroke="none">
<path d="M175 2418 c-11 -6 -22 -15 -25 -19 -3 -4 -19 -9 -35 -11 -26 -3 -30
-7 -27 -30 2 -23 -1 -28 -20 -29 -17 -1 -18 -3 -6 -6 17 -4 18 -70 18 -1116 0
-611 4 -1115 8 -1119 5 -5 530 -7 1168 -6 l1159 3 0 1170 0 1170 -1110 2
c-814 2 -1115 -1 -1130 -9z m673 -160 l-3 -43 79 -7 c43 -4 84 -13 92 -19 10
-8 14 -28 13 -56 -3 -40 -5 -44 -38 -53 -20 -5 -53 -10 -73 -10 l-38 0 0 -85
c0 -75 2 -85 18 -85 29 0 104 -39 139 -72 17 -17 37 -50 44 -74 8 -24 17 -44
21 -44 5 0 8 -335 8 -745 l0 -745 -23 -5 c-12 -3 -166 -4 -342 -3 l-320 3 -3
745 c-2 531 1 757 9 786 6 23 23 55 39 72 31 34 119 82 150 82 20 0 21 5 18
83 l-3 82 -45 3 c-45 3 -47 1 -123 -73 -42 -41 -81 -75 -86 -75 -21 0 -43 -55
-44 -114 l-2 -61 -32 -3 -33 -3 0 62 c0 85 19 192 36 205 8 7 57 51 108 98
130 120 141 128 179 126 64 -4 67 -2 67 35 l0 35 96 0 95 0 -3 -42z m1130
-158 c9 -19 22 -40 28 -47 7 -7 21 -32 33 -56 26 -54 124 -156 162 -169 l29
-10 0 -134 c0 -87 -4 -134 -10 -134 -19 0 -74 31 -118 67 -61 50 -116 127
-152 213 -17 41 -35 83 -40 92 -18 32 -32 162 -27 238 8 117 15 123 49 43 15
-37 36 -84 46 -103z m-407 9 c19 -6 50 -23 69 -38 19 -15 47 -34 63 -44 15
-10 27 -21 27 -26 0 -5 17 -35 38 -67 20 -32 36 -61 34 -66 -1 -4 2 -8 7 -8 5
0 19 -26 31 -57 36 -97 123 -263 158 -302 64 -70 85 -91 95 -91 5 0 22 -11 39
-25 l30 -25 -44 -2 c-123 -5 -188 14 -251 73 -23 21 -45 39 -49 39 -26 0 -222
349 -253 450 -9 29 -45 103 -54 110 -6 5 -41 54 -55 78 -9 16 67 17 115 1z m4
-525 c11 -16 30 -37 43 -48 13 -10 21 -21 18 -23 -8 -8 144 -152 220 -208 36
-27 96 -64 133 -82 36 -18 62 -33 56 -34 -5 0 13 -9 40 -21 28 -11 61 -25 75
-31 25 -11 35 -14 58 -16 9 -1 12 -34 12 -130 l0 -129 -46 14 c-26 8 -52 18
-58 23 -6 4 -37 18 -69 30 -61 22 -139 59 -147 70 -3 4 -30 22 -60 41 -62 39
-165 137 -200 190 -13 19 -28 40 -34 45 -38 35 -85 188 -92 300 -6 101 -12
100 51 9z m68 -553 c35 -17 96 -63 139 -104 146 -138 194 -178 226 -194 17 -8
32 -19 32 -23 0 -11 88 -40 124 -41 30 0 30 -1 -14 -22 -37 -17 -65 -21 -155
-21 -105 -1 -113 1 -177 32 -38 18 -68 37 -68 42 0 5 -11 15 -24 22 -13 7 -60
46 -105 86 -126 115 -172 151 -218 169 -24 10 -43 21 -43 26 0 4 -8 7 -17 7
-29 0 0 21 59 42 76 27 161 20 241 -21z m-1 -431 c5 0 7 -4 4 -9 -3 -5 9 -15
27 -22 17 -7 59 -25 91 -41 33 -15 70 -28 82 -28 13 0 25 -4 28 -9 10 -16 178
-34 268 -28 l88 6 0 -121 0 -121 -107 6 c-108 5 -273 46 -273 67 0 5 -10 12
-22 16 -63 19 -187 133 -240 219 -14 22 -32 61 -40 86 l-16 46 50 -33 c28 -19
54 -34 60 -34z"/>
<path d="M479 1410 c0 -66 -1 -141 -1 -167 l-1 -48 282 -3 281 -2 0 170 0 170
-280 0 -280 0 -1 -120z"/>
</g>
</svg>
