<?xml version="1.0" standalone="no"?>
<!DOCTYPE svg PUBLIC "-//W3C//DTD SVG 20010904//EN"
 "http://www.w3.org/TR/2001/REC-SVG-20010904/DTD/svg10.dtd">
<svg version="1.0" xmlns="http://www.w3.org/2000/svg"
 width="250.000000pt" height="233.000000pt" viewBox="0 0 250.000000 233.000000"
 preserveAspectRatio="xMidYMid meet">

<g transform="translate(0.000000,233.000000) scale(0.100000,-0.100000)"
fill="#000000" stroke="none">
<path d="M1125 2206 c-27 -8 -84 -23 -127 -34 -42 -12 -85 -25 -95 -31 -10 -5
-45 -21 -77 -36 -124 -54 -288 -186 -372 -300 -16 -22 -32 -42 -35 -45 -17
-15 -79 -112 -85 -134 -3 -14 -12 -30 -20 -37 -8 -6 -28 -56 -44 -110 -24 -76
-33 -131 -40 -232 -20 -297 25 -469 182 -699 70 -102 263 -288 300 -288 8 0
23 -9 32 -19 10 -11 39 -27 64 -35 25 -9 52 -22 61 -30 9 -7 36 -19 61 -26 25
-6 74 -20 110 -30 52 -15 102 -19 243 -19 170 -1 184 0 290 30 62 17 119 35
127 40 8 5 31 16 50 24 19 9 40 19 46 23 124 80 173 115 178 127 3 8 12 15 20
15 17 0 146 137 146 155 0 6 9 20 20 30 11 10 20 22 20 28 0 5 13 26 29 46 15
20 32 47 36 61 4 14 13 32 21 41 7 8 21 46 30 85 9 38 24 87 33 109 24 59 23
416 -1 460 -9 17 -21 55 -26 85 -6 31 -27 87 -48 125 -21 39 -45 84 -54 100
-47 90 -321 375 -360 375 -9 0 -23 7 -30 15 -7 8 -41 24 -77 35 -35 11 -74 27
-86 35 -12 8 -31 15 -43 15 -12 0 -57 12 -100 26 -97 32 -295 43 -379 20z
m360 -203 c11 -6 49 -18 84 -27 34 -9 76 -25 91 -36 15 -11 37 -20 47 -20 24
0 76 -38 150 -107 31 -29 59 -53 64 -53 5 0 15 -13 23 -29 9 -16 22 -31 31
-35 9 -3 23 -20 31 -38 19 -40 42 -81 72 -129 12 -20 22 -42 22 -48 0 -7 12
-38 27 -69 28 -56 28 -59 28 -262 0 -193 -1 -207 -22 -248 -13 -23 -23 -50
-23 -60 0 -27 -66 -151 -100 -189 -17 -18 -38 -33 -48 -33 -9 0 -127 113 -262
250 -263 269 -258 262 -259 369 -1 31 -8 51 -26 73 -26 31 -32 76 -15 109 15
27 37 24 54 -9 8 -15 23 -36 35 -46 16 -15 21 -31 21 -72 0 -42 6 -63 30 -101
17 -26 30 -53 30 -60 0 -14 36 -18 44 -5 2 4 -9 66 -26 137 -16 72 -34 150
-39 174 -5 25 -12 47 -17 50 -16 13 -90 118 -96 138 -4 12 -21 34 -39 48 -49
39 -62 53 -77 80 -12 22 -12 30 3 54 17 29 23 95 11 125 -5 12 -20 16 -63 16
-55 0 -56 -1 -82 -43 -37 -60 -40 -72 -24 -111 22 -52 19 -71 -20 -113 -19
-20 -44 -63 -56 -95 -14 -39 -27 -58 -38 -58 -24 0 -312 285 -306 302 6 15
108 88 123 88 6 0 36 14 67 30 31 17 68 30 81 30 14 0 41 7 62 16 20 9 71 20
112 23 94 8 268 -2 295 -16z m-729 -467 c76 -77 124 -132 124 -144 0 -38 -13
-54 -56 -73 -83 -35 -49 -53 68 -38 73 10 86 9 115 -6 18 -10 33 -24 33 -31 0
-6 7 -15 15 -18 21 -8 45 -67 45 -110 0 -41 -15 -80 -47 -119 -13 -16 -23 -37
-23 -48 0 -11 -5 -30 -11 -41 -15 -28 -28 -112 -37 -235 -9 -114 -24 -142 -88
-163 -58 -20 -45 -31 50 -44 21 -3 46 -12 56 -21 31 -28 58 -19 70 25 6 21 18
44 27 49 15 8 17 31 19 174 l1 165 43 51 c24 28 46 51 50 51 4 0 12 11 18 25
24 52 108 12 133 -63 6 -20 20 -53 30 -72 14 -25 19 -56 19 -111 0 -50 7 -96
20 -134 34 -98 23 -139 -41 -152 -32 -6 -44 -27 -24 -43 9 -8 25 -8 57 -1 23
6 59 12 78 13 32 3 38 9 66 62 33 62 33 67 3 143 -11 28 -11 35 2 48 25 25 62
4 156 -92 77 -79 84 -90 79 -117 -8 -37 -30 -62 -61 -70 -14 -4 -41 -17 -61
-31 -20 -14 -41 -25 -46 -25 -5 0 -33 -11 -61 -24 -41 -19 -81 -27 -189 -36
-76 -6 -142 -9 -147 -6 -5 3 -50 10 -99 15 -50 5 -101 16 -114 24 -13 8 -42
18 -65 22 -37 6 -61 17 -148 73 -11 7 -33 20 -49 30 -111 67 -274 273 -291
367 -4 22 -11 45 -15 50 -5 6 -16 37 -26 70 -15 49 -19 92 -18 240 1 171 2
183 27 246 15 36 27 70 27 75 0 22 80 159 96 165 49 20 64 10 190 -115z"/>
</g>
</svg>
