<?xml version="1.0" standalone="no"?>
<!DOCTYPE svg PUBLIC "-//W3C//DTD SVG 20010904//EN"
 "http://www.w3.org/TR/2001/REC-SVG-20010904/DTD/svg10.dtd">
<svg version="1.0" xmlns="http://www.w3.org/2000/svg"
 width="250.000000pt" height="250.000000pt" viewBox="0 0 250.000000 250.000000"
 preserveAspectRatio="xMidYMid meet">

<g transform="translate(0.000000,250.000000) scale(0.100000,-0.100000)"
fill="#000000" stroke="none">
<path d="M1020 2306 c-211 -49 -389 -146 -535 -291 -71 -72 -185 -225 -185
-250 0 -5 -6 -16 -14 -24 -21 -25 -74 -177 -96 -278 -40 -187 -19 -422 56
-610 71 -179 230 -379 379 -477 33 -22 71 -47 85 -56 48 -32 146 -72 245 -102
119 -35 317 -48 452 -30 75 11 234 54 258 72 6 4 29 14 53 24 53 20 170 95
240 154 75 63 167 172 219 260 192 325 204 719 32 1050 -123 235 -306 401
-554 504 -188 78 -438 99 -635 54z m434 -210 c37 -9 82 -23 100 -30 17 -8 48
-22 70 -30 62 -25 168 -101 237 -169 296 -289 342 -756 109 -1101 -17 -25 -36
-48 -42 -52 -9 -6 -388 362 -388 377 0 6 118 147 183 219 18 19 58 66 91 105
32 38 69 81 82 94 25 24 30 59 18 120 l-6 31 -78 0 -77 0 -60 -67 c-68 -77
-240 -278 -278 -326 l-24 -32 -85 84 c-55 55 -88 95 -92 115 -8 38 -78 183
-104 216 l-20 25 0 -37 c0 -50 -13 -54 -44 -14 -36 47 -35 103 3 179 15 31 27
57 24 57 -5 0 -90 -46 -138 -75 -22 -13 -45 -27 -51 -30 -13 -7 -174 148 -174
167 0 12 38 42 94 75 63 38 142 70 231 94 89 25 114 27 225 25 71 -2 155 -11
194 -20z m-774 -390 l74 -75 -23 -46 c-15 -29 -25 -72 -28 -120 -3 -41 -8 -75
-12 -75 -3 0 -15 12 -27 28 l-22 27 -13 -30 c-7 -17 -13 -74 -13 -130 -1 -94
1 -103 31 -159 l32 -58 -29 4 c-25 4 -30 1 -30 -16 0 -26 43 -92 70 -106 11
-6 20 -19 20 -29 0 -26 69 -71 111 -71 60 -1 121 -20 160 -51 31 -24 42 -28
58 -20 37 20 71 71 71 107 0 39 -5 41 -33 17 -25 -22 -19 -11 38 72 23 33 56
86 74 118 18 31 36 57 40 57 4 0 16 -9 26 -20 20 -22 22 -18 -51 -108 -25 -31
-44 -66 -48 -89 -17 -101 -61 -151 -170 -193 -48 -18 -76 -54 -83 -106 -9 -69
51 -116 127 -99 42 9 77 47 90 96 6 22 24 64 39 91 22 43 38 57 96 89 42 22
88 59 115 89 25 28 50 50 55 50 6 0 92 -82 193 -183 170 -170 182 -184 165
-198 -68 -55 -169 -107 -286 -146 -75 -25 -95 -27 -242 -27 -149 -1 -166 1
-250 28 -159 51 -265 114 -369 222 -91 93 -106 113 -161 220 -87 167 -115 375
-76 559 22 98 70 226 97 256 7 8 14 20 14 25 0 6 14 29 32 52 38 49 36 50 138
-52z m1144 -88 c-11 -18 -214 -260 -234 -278 -9 -8 -40 -44 -70 -80 -30 -36
-57 -69 -61 -74 -9 -11 -39 11 -39 28 0 10 88 116 225 271 29 33 68 79 87 102
26 34 39 42 66 42 24 1 31 -2 26 -11z m30 -105 c-22 -27 -50 -60 -64 -75 -14
-14 -32 -35 -40 -45 -80 -95 -206 -242 -221 -257 -15 -16 -21 -17 -33 -6 -23
18 -20 31 17 70 18 19 96 109 174 200 77 91 151 177 164 192 l24 27 9 -29 c8
-26 4 -35 -30 -77z m-1066 -243 c30 -30 72 -41 72 -19 0 15 66 3 104 -19 16
-10 37 -35 48 -57 l19 -40 -5 45 c-3 25 -8 54 -12 63 -3 9 -1 17 5 17 21 0 80
-62 92 -97 13 -42 6 -113 -14 -128 -7 -5 -28 -30 -45 -54 -24 -33 -32 -55 -32
-86 0 -54 -7 -59 -40 -31 -17 14 -48 26 -79 30 -61 8 -122 52 -158 113 l-25
43 36 -15 c20 -9 47 -13 60 -9 l25 6 -35 54 c-19 29 -39 77 -44 105 -10 54
-13 109 -6 109 3 0 18 -13 34 -30z m535 -208 c16 -17 14 -21 -22 -60 -21 -22
-55 -60 -74 -84 -43 -51 -57 -44 -34 18 14 40 92 142 108 144 3 0 13 -8 22
-18z m60 -96 c-69 -84 -129 -130 -159 -124 -14 2 -13 7 8 28 13 14 48 53 77
88 51 60 54 62 72 46 18 -16 18 -18 2 -38z"/>
</g>
</svg>
