<?xml version="1.0" standalone="no"?>
<!DOCTYPE svg PUBLIC "-//W3C//DTD SVG 20010904//EN"
 "http://www.w3.org/TR/2001/REC-SVG-20010904/DTD/svg10.dtd">
<svg version="1.0" xmlns="http://www.w3.org/2000/svg"
 width="250.000000pt" height="251.000000pt" viewBox="0 0 250.000000 251.000000"
 preserveAspectRatio="xMidYMid meet">

<g transform="translate(0.000000,251.000000) scale(0.100000,-0.100000)"
fill="#000000" stroke="none">
<path d="M1035 2414 c-115 -21 -169 -38 -278 -88 -350 -163 -599 -489 -663
-868 -24 -143 -15 -364 20 -505 60 -243 230 -492 441 -650 125 -93 346 -188
495 -212 93 -15 325 -13 412 3 408 78 747 366 889 755 51 138 69 244 69 403 0
165 -13 244 -62 388 -80 235 -232 436 -443 587 -76 55 -233 132 -317 157 -160
46 -401 59 -563 30z m412 -229 c100 -19 269 -94 355 -157 173 -127 298 -305
360 -513 31 -103 33 -119 33 -260 0 -140 -2 -157 -33 -258 -18 -60 -40 -123
-48 -140 -32 -63 -117 -197 -125 -197 -4 0 -116 109 -248 242 l-239 242 26 18
c64 41 105 91 182 223 45 77 85 142 89 145 3 3 19 23 35 45 16 22 49 61 74 87
l44 46 -84 85 c-47 46 -105 96 -130 111 l-45 26 -109 -41 c-60 -23 -178 -59
-263 -81 -181 -47 -244 -73 -290 -122 l-35 -36 -169 171 -169 170 54 40 c52
40 165 98 243 126 118 43 346 56 492 28z m-617 -769 c-15 -22 -44 -69 -64
-103 l-36 -61 12 -229 13 -228 28 -3 c16 -2 39 5 56 17 25 18 31 32 45 108 9
49 16 129 16 178 1 99 6 113 64 175 45 49 69 42 37 -11 -28 -46 -27 -63 12
-143 l32 -68 44 36 c51 43 81 60 81 48 0 -5 -34 -37 -75 -71 -42 -34 -84 -76
-95 -93 -28 -46 -34 -95 -16 -124 19 -27 34 -24 86 16 19 15 79 57 132 93 96
65 137 75 79 20 -27 -26 -29 -31 -22 -71 5 -23 11 -46 15 -49 12 -13 56 21 74
58 l19 37 221 -221 c122 -122 222 -227 222 -232 0 -6 -39 -34 -87 -62 -198
-115 -452 -155 -666 -104 -95 23 -243 77 -253 92 -3 5 -26 20 -52 33 -61 31
-215 176 -261 245 -66 98 -73 112 -112 206 -94 229 -92 483 6 714 25 58 59
127 77 153 l33 48 181 -181 182 -182 -28 -41z"/>
<path d="M1170 904 c-25 -19 -49 -39 -53 -44 -5 -4 -1 -24 8 -44 21 -44 48
-47 87 -9 31 29 38 85 16 116 -12 15 -17 14 -58 -19z"/>
<path d="M660 675 l0 -55 405 0 405 0 0 55 0 55 -405 0 -405 0 0 -55z"/>
<path d="M95 147 c-10 -8 -16 -23 -13 -38 2 -19 9 -24 33 -24 25 0 31 4 33 27
4 34 -26 54 -53 35z"/>
</g>
</svg>
