<?xml version="1.0" standalone="no"?>
<!DOCTYPE svg PUBLIC "-//W3C//DTD SVG 20010904//EN"
 "http://www.w3.org/TR/2001/REC-SVG-20010904/DTD/svg10.dtd">
<svg version="1.0" xmlns="http://www.w3.org/2000/svg"
 width="250.000000pt" height="250.000000pt" viewBox="0 0 250.000000 250.000000"
 preserveAspectRatio="xMidYMid meet">

<g transform="translate(0.000000,250.000000) scale(0.100000,-0.100000)"
fill="#000000" stroke="none">
<path d="M1066 2275 c-199 -34 -401 -140 -551 -290 -485 -484 -375 -1295 220
-1633 104 -60 175 -86 300 -112 186 -39 290 -36 492 15 336 86 633 383 719
721 41 165 50 273 31 395 -42 272 -137 462 -318 636 -232 222 -567 322 -893
268z m307 -226 c72 -11 175 -48 266 -93 95 -48 124 -9 -369 -497 -245 -241
-448 -439 -452 -439 -5 0 -8 -6 -8 -13 0 -7 -47 -59 -104 -116 -118 -118 -117
-117 -162 -30 -125 248 -137 472 -35 707 86 200 232 344 431 425 156 64 280
80 433 56z m602 -451 c39 -74 66 -185 72 -295 14 -246 -62 -447 -232 -618
-171 -170 -372 -246 -618 -232 -148 8 -255 42 -382 120 l-39 25 79 81 c43 45
80 79 82 78 2 -2 152 147 335 332 182 185 399 404 480 486 l149 150 25 -40
c14 -22 36 -61 49 -87z"/>
</g>
</svg>
