<?xml version="1.0" standalone="no"?>
<!DOCTYPE svg PUBLIC "-//W3C//DTD SVG 20010904//EN"
 "http://www.w3.org/TR/2001/REC-SVG-20010904/DTD/svg10.dtd">
<svg version="1.0" xmlns="http://www.w3.org/2000/svg"
 width="250.000000pt" height="378.000000pt" viewBox="0 0 250.000000 378.000000"
 preserveAspectRatio="xMidYMid meet">
<metadata>
Created by potrace 1.16, written by Peter Selinger 2001-2019
</metadata>
<g transform="translate(0.000000,378.000000) scale(0.100000,-0.100000)"
fill="#000000" stroke="none">
<path d="M238 3480 c-42 -13 -93 -47 -126 -84 -33 -38 -67 -117 -59 -138 4 -8
8 -4 13 12 32 106 107 178 210 199 45 9 290 11 1004 9 l945 -3 56 -27 c59 -28
129 -98 129 -129 0 -10 5 -21 10 -24 6 -3 11 -56 11 -118 1 -62 5 -146 8 -187
6 -73 7 -72 15 67 10 180 -1 251 -53 320 -20 26 -58 61 -85 78 l-49 30 -1001
2 c-551 1 -1013 -2 -1028 -7z"/>
<path d="M312 3400 c-50 -12 -107 -54 -144 -107 l-33 -48 0 -1351 0 -1351 30
-49 c33 -53 113 -114 150 -114 12 0 28 -7 35 -15 14 -17 90 -21 90 -5 0 7 232
10 675 10 595 0 674 -2 669 -15 -5 -13 16 -15 156 -15 131 0 161 3 157 13 -3
8 0 14 6 14 123 5 216 68 253 170 20 56 20 2650 0 2706 -20 55 -61 103 -114
134 l-47 28 -925 2 c-509 0 -940 -2 -958 -7z m532 -447 l-7 -151 -150 -7 -149
-7 -56 55 -55 55 102 7 c62 5 101 12 101 19 0 6 -41 51 -90 101 l-90 91 39 38
39 38 91 -91 c50 -50 95 -91 101 -91 5 0 10 17 10 39 0 21 3 66 7 100 l6 63
54 -54 54 -54 -7 -151z m925 110 c1 -35 5 -53 13 -53 7 0 53 41 103 90 l91 90
38 -39 38 -39 -91 -91 c-50 -50 -91 -94 -91 -99 0 -5 46 -13 101 -17 l102 -7
-55 -55 -56 -55 -150 7 -150 7 -7 150 -7 150 53 54 54 55 7 -48 c3 -26 7 -72
7 -100z m-451 -298 c16 -13 35 -38 42 -55 19 -45 -10 -105 -64 -132 -35 -18
-44 -19 -78 -7 -43 14 -59 30 -78 77 -10 26 -10 38 0 62 19 47 65 80 110 80
26 0 48 -8 68 -25z m-265 -205 c55 -62 28 -157 -53 -181 -68 -20 -139 32 -140
103 0 106 123 156 193 78z m547 13 c40 -36 51 -97 25 -141 -44 -74 -160 -69
-201 9 -18 36 -18 63 1 99 33 63 123 80 175 33z m-279 -94 c38 -40 41 -105 7
-137 -35 -32 -73 -43 -105 -31 -51 19 -73 48 -73 97 0 94 107 139 171 71z
m388 -139 c19 -5 45 -19 58 -32 22 -21 23 -26 23 -200 l0 -178 -45 0 -44 0 -3
113 c-2 92 -6 112 -18 112 -12 0 -16 -20 -18 -112 l-3 -113 -59 0 -60 0 0 136
c0 110 -3 141 -17 165 -23 39 -70 59 -137 59 l-57 0 21 22 c11 12 20 25 20 30
0 11 298 10 339 -2z m-563 -25 l23 -25 -55 0 c-31 0 -71 -7 -90 -16 -55 -26
-64 -55 -65 -209 l0 -135 -60 0 -59 0 0 110 c0 103 -1 110 -20 110 -19 0 -20
-7 -20 -110 l0 -110 -45 0 -45 0 0 173 c0 185 5 208 54 227 11 5 97 9 190 9
167 1 169 1 192 -24z m335 -96 l29 -31 0 -164 0 -164 -40 0 -40 0 0 110 0 110
-30 0 -30 0 0 -110 0 -110 -120 0 -120 0 0 110 0 110 -35 0 -35 0 0 -110 0
-110 -35 0 -35 0 0 164 0 164 29 31 29 31 202 0 202 0 29 -31z m-770 -369
l126 0 7 -156 7 -157 -53 -54 -53 -54 -7 48 c-3 26 -7 72 -7 101 -1 34 -5 52
-13 52 -7 0 -53 -41 -103 -90 l-91 -90 -39 40 -39 40 92 93 c51 51 92 95 92
99 0 3 -41 9 -90 13 -50 4 -93 11 -96 16 -3 5 18 32 47 60 39 38 57 49 73 45
12 -3 78 -6 147 -6z m1298 -44 c29 -29 49 -56 44 -59 -4 -2 -47 -8 -95 -12
-49 -4 -88 -10 -88 -13 0 -4 41 -48 92 -99 l92 -93 -39 -40 -39 -40 -96 95
c-52 52 -99 95 -103 95 -4 0 -7 -26 -8 -57 0 -32 -4 -80 -7 -106 l-7 -48 -54
54 -53 55 7 156 7 155 137 4 c75 1 141 4 146 5 6 1 35 -22 64 -52z m-1320
-636 c15 -58 27 -64 36 -17 13 63 15 67 46 67 l29 0 0 -85 c0 -69 -3 -85 -15
-85 -12 0 -15 14 -15 70 0 70 -14 94 -25 43 -17 -78 -29 -113 -39 -110 -5 2
-17 33 -25 70 -21 101 -35 90 -31 -25 1 -38 -2 -48 -14 -48 -13 0 -16 14 -16
85 l0 85 28 0 c25 0 29 -5 41 -50z m451 30 c12 -22 0 -55 -22 -63 -10 -3 -9
-9 3 -23 9 -10 22 -29 28 -41 10 -20 9 -23 -8 -23 -12 0 -26 14 -38 38 -29 54
-53 55 -53 3 0 -34 -3 -41 -20 -41 -18 0 -20 7 -20 85 l0 85 60 0 c49 0 61 -3
70 -20z m192 -288 c13 -79 29 -77 43 6 6 38 9 42 36 42 l29 0 0 -85 c0 -69 -3
-85 -15 -85 -12 0 -15 15 -15 71 0 38 -4 68 -8 65 -5 -3 -14 -34 -22 -70 -9
-42 -18 -66 -27 -66 -15 0 -16 1 -34 83 -6 31 -16 57 -21 57 -4 0 -8 -31 -8
-70 0 -40 -4 -70 -10 -70 -6 0 -10 35 -10 86 l0 85 27 -3 c24 -3 29 -9 35 -46z
m272 32 c20 -20 20 -29 0 -49 -15 -15 -15 -17 5 -31 25 -18 26 -31 4 -56 -12
-13 -30 -18 -70 -18 l-53 0 0 85 0 85 49 0 c32 0 55 -6 65 -16z m-431 -266
c26 -31 22 -93 -8 -123 -31 -32 -69 -32 -100 0 -27 26 -34 80 -14 116 22 42
89 46 122 7z m220 -18 c10 -19 25 -42 33 -50 12 -12 14 -7 14 38 0 40 4 52 15
52 12 0 15 -16 15 -85 0 -103 -15 -112 -58 -35 -15 27 -30 50 -34 50 -5 0 -8
-22 -8 -50 0 -43 -3 -50 -20 -50 -18 0 -20 7 -20 86 0 82 1 85 22 82 12 -2 29
-18 41 -38z"/>
</g>
</svg>
