<?xml version="1.0" standalone="no"?>
<!DOCTYPE svg PUBLIC "-//W3C//DTD SVG 20010904//EN"
 "http://www.w3.org/TR/2001/REC-SVG-20010904/DTD/svg10.dtd">
<svg version="1.0" xmlns="http://www.w3.org/2000/svg"
 width="529.000000pt" height="250.000000pt" viewBox="0 0 529.000000 250.000000"
 preserveAspectRatio="xMidYMid meet">
<metadata>
Created by potrace 1.16, written by Peter Selinger 2001-2019
</metadata>
<g transform="translate(0.000000,250.000000) scale(0.100000,-0.100000)"
fill="#000000" stroke="none">
<path d="M150 2487 c-53 -17 -124 -93 -138 -149 -16 -64 -17 -2109 -1 -2172
14 -55 59 -110 112 -139 l42 -22 2480 0 2480 0 42 22 c53 29 98 84 112 139 16
63 15 2108 -1 2172 -15 59 -85 132 -144 150 -57 17 -4931 16 -4984 -1z m1567
-284 c78 -40 121 -144 93 -227 -36 -111 -168 -168 -268 -117 -149 77 -148 271
2 347 59 29 112 29 173 -3z m2481 -205 c482 -243 496 -252 461 -294 -22 -26
-906 -464 -937 -464 -46 0 -52 15 -52 122 l0 98 -475 0 c-513 0 -525 1 -539
52 -3 13 -6 117 -6 231 0 207 0 208 25 232 l24 25 486 0 485 0 0 99 c0 92 2
101 22 115 12 9 27 16 33 16 5 1 218 -104 473 -232z m-2613 -178 c88 -17 169
-35 181 -39 14 -6 35 -48 74 -147 29 -77 55 -141 56 -143 2 -2 72 -19 156 -37
161 -36 199 -55 213 -111 15 -61 -39 -133 -100 -133 -31 0 -382 72 -416 85 -9
3 -31 44 -49 91 -18 46 -36 84 -40 84 -3 0 -39 -86 -78 -192 l-72 -192 131
-132 131 -131 59 -212 c32 -116 59 -222 59 -234 0 -38 -36 -84 -74 -97 -46
-15 -100 1 -123 37 -9 13 -40 108 -69 211 l-53 186 -117 117 c-65 65 -121 116
-124 114 -4 -2 -22 -50 -41 -106 -19 -55 -41 -104 -49 -109 -8 -4 -127 -42
-263 -85 -228 -70 -251 -75 -283 -65 -81 27 -99 148 -30 193 12 8 105 40 207
72 103 31 192 60 198 64 10 7 254 692 248 696 -1 1 -42 -7 -92 -17 l-90 -19
-70 -107 c-93 -141 -110 -160 -150 -168 -75 -14 -149 61 -128 131 15 49 205
334 228 342 30 10 367 81 390 82 10 1 91 -13 180 -29z m1513 -852 l3 -77 -133
-3 -133 -3 -3 -72 -3 -73 131 0 130 0 0 -80 0 -80 -130 0 -130 0 0 -75 0 -75
135 0 135 0 0 -80 0 -80 -222 2 -223 3 -3 375 c-1 206 0 381 3 388 3 10 53 12
222 10 l218 -3 3 -77z m334 -21 c36 -54 69 -98 73 -98 4 0 37 44 73 98 l67 98
109 3 c97 2 108 1 102 -14 -3 -9 -58 -90 -122 -180 -73 -103 -113 -168 -108
-176 4 -7 68 -96 142 -197 74 -101 136 -190 139 -198 4 -10 -17 -13 -108 -12
l-114 0 -89 130 c-49 71 -90 129 -91 129 -1 0 -42 -58 -91 -130 l-89 -130
-107 0 c-60 0 -108 3 -108 8 0 4 61 93 135 197 75 105 138 196 141 203 4 8
-41 83 -105 177 -61 90 -114 171 -117 180 -6 14 5 15 97 13 l104 -3 67 -98z
m678 -287 l0 -391 -87 3 -88 3 -3 375 c-1 206 0 381 3 387 3 9 31 13 90 13
l85 0 0 -390z m560 310 l0 -80 -90 0 -90 0 0 -310 0 -310 -90 0 -90 0 0 310 0
310 -90 0 -90 0 0 80 0 80 270 0 270 0 0 -80z"/>
</g>
</svg>
