<?xml version="1.0" standalone="no"?>
<!DOCTYPE svg PUBLIC "-//W3C//DTD SVG 20010904//EN"
 "http://www.w3.org/TR/2001/REC-SVG-20010904/DTD/svg10.dtd">
<svg version="1.0" xmlns="http://www.w3.org/2000/svg"
 width="253.000000pt" height="250.000000pt" viewBox="0 0 253.000000 250.000000"
 preserveAspectRatio="xMidYMid meet">

<g transform="translate(0.000000,250.000000) scale(0.100000,-0.100000)"
fill="#000000" stroke="none">
<path d="M0 1250 l0 -1250 1265 0 1265 0 0 1250 0 1250 -1265 0 -1265 0 0
-1250z m2475 5 l0 -1200 -1215 0 -1215 0 -3 1190 c-1 655 0 1196 3 1203 3 10
252 12 1217 10 l1213 -3 0 -1200z"/>
<path d="M100 1250 l0 -1150 1163 2 1162 3 3 1148 2 1147 -1165 0 -1165 0 0
-1150z m1520 770 l0 -310 335 0 335 0 -2 -332 -3 -333 -332 -3 -333 -2 0 -295
0 -295 -365 0 -365 0 0 295 0 295 -335 0 -335 0 0 335 0 335 335 0 335 0 0
303 c0 167 3 307 7 310 3 4 168 7 365 7 l358 0 0 -310z m-501 -1648 c14 -10
27 -29 29 -41 3 -17 -2 -21 -22 -21 -14 0 -35 9 -46 20 -21 21 -46 25 -69 11
-25 -16 -4 -36 50 -50 78 -19 99 -35 99 -75 0 -41 -26 -66 -77 -75 -78 -14
-153 18 -153 65 0 21 53 17 73 -6 22 -26 73 -27 87 -1 13 25 3 31 -75 51 -47
12 -63 21 -73 42 -38 80 95 141 177 80z m-589 -7 c0 -24 -2 -25 -70 -25 -63 0
-70 -2 -70 -20 0 -18 7 -20 60 -20 57 0 60 -1 60 -25 0 -24 -3 -25 -60 -25
l-60 0 0 -55 c0 -54 0 -55 -30 -55 l-30 0 0 125 0 125 100 0 100 0 0 -25z m93
13 c-2 -5 -3 -60 -3 -123 l0 -115 -30 0 -30 0 0 126 0 125 33 -3 c17 -2 31 -6
30 -10z m254 -10 c28 -26 30 -61 4 -87 -17 -17 -18 -21 -5 -32 8 -6 14 -29 14
-50 0 -24 5 -39 12 -39 9 0 9 -3 1 -11 -6 -6 -23 -9 -39 -7 -25 3 -30 9 -40
48 -10 42 -13 45 -47 48 l-36 3 -3 -48 c-3 -46 -4 -48 -35 -51 l-33 -3 0 125
0 126 92 0 c80 0 95 -3 115 -22z m528 -3 c0 -16 -8 -21 -42 -23 l-43 -3 0
-100 0 -99 -30 0 -30 0 0 100 0 100 -45 0 c-41 0 -45 2 -45 25 l0 26 118 -3
c109 -3 117 -4 117 -23z m294 -12 c7 -21 29 -73 47 -116 19 -43 34 -82 34 -87
0 -6 -14 -10 -30 -10 -23 0 -33 6 -42 25 -17 37 -99 37 -116 0 -9 -19 -19 -25
-42 -25 -16 0 -30 4 -30 9 0 5 14 42 31 82 17 41 38 93 47 117 15 38 20 42 52
42 33 0 37 -4 49 -37z m171 -88 l0 -125 -30 0 -30 0 0 125 0 125 30 0 30 0 0
-125z m246 93 c32 -30 35 -38 36 -86 0 -96 -51 -135 -170 -130 l-67 3 -3 109
c-1 61 0 116 2 123 4 9 29 13 86 13 77 0 82 -1 116 -32z"/>
<path d="M740 309 c0 -31 1 -32 41 -26 47 6 64 19 56 41 -5 11 -20 16 -52 16
-44 0 -45 -1 -45 -31z"/>
<path d="M1637 293 c-2 -10 -8 -26 -12 -35 -6 -15 -2 -18 24 -18 30 0 30 1 19
28 -17 39 -25 46 -31 25z"/>
<path d="M1980 265 l0 -75 39 0 c46 0 71 26 71 75 0 49 -25 75 -71 75 l-39 0
0 -75z"/>
</g>
</svg>
