<?xml version="1.0" standalone="no"?>
<!DOCTYPE svg PUBLIC "-//W3C//DTD SVG 20010904//EN"
 "http://www.w3.org/TR/2001/REC-SVG-20010904/DTD/svg10.dtd">
<svg version="1.0" xmlns="http://www.w3.org/2000/svg"
 width="250.000000pt" height="249.000000pt" viewBox="0 0 250.000000 249.000000"
 preserveAspectRatio="xMidYMid meet">
<metadata>
Created by potrace 1.16, written by Peter Selinger 2001-2019
</metadata>
<g transform="translate(0.000000,249.000000) scale(0.100000,-0.100000)"
fill="#000000" stroke="none">
<path d="M1213 2331 c-17 -19 -133 -210 -256 -421 -30 -52 -65 -111 -77 -130
-13 -19 -34 -55 -48 -80 -13 -25 -43 -76 -67 -115 -45 -75 -107 -181 -200
-340 -32 -55 -78 -131 -102 -169 -24 -38 -43 -74 -43 -78 0 -5 -13 -28 -29
-51 -15 -23 -46 -73 -68 -112 -22 -38 -64 -110 -93 -160 -125 -211 -129 -226
-85 -270 l24 -25 1076 0 1076 0 24 25 c36 35 31 69 -27 170 -28 50 -73 131
-101 180 -28 50 -69 124 -92 165 -23 41 -67 118 -97 170 -30 52 -96 169 -147
260 -51 91 -106 185 -121 210 -15 25 -53 92 -85 150 -32 58 -81 146 -110 195
-29 50 -70 122 -92 160 -89 156 -146 251 -161 268 -21 23 -76 22 -99 -2z m84
-273 c17 -29 79 -138 138 -243 59 -104 124 -219 145 -255 21 -36 50 -87 65
-115 15 -27 55 -97 88 -155 108 -190 139 -244 187 -330 26 -47 88 -157 138
-244 50 -88 89 -163 86 -168 -6 -10 -1804 -11 -1804 -1 0 6 22 45 125 218 41
70 105 180 212 363 31 53 73 124 93 157 20 33 62 103 92 155 31 52 99 169 153
260 162 274 191 323 215 368 13 23 26 42 30 42 3 0 20 -24 37 -52z"/>
<path d="M1167 1654 c-3 -5 -24 -70 -47 -144 -82 -264 -138 -446 -154 -493
l-15 -48 22 7 c12 3 80 31 150 60 133 56 163 64 154 41 -3 -8 -8 -63 -12 -124
-9 -134 -14 -146 -49 -113 -22 20 -26 21 -26 6 0 -34 33 -216 39 -216 4 0 24
24 46 53 21 28 51 68 66 88 31 41 29 52 -8 38 -14 -5 -28 -7 -31 -5 -6 7 18
94 85 304 30 95 53 175 50 178 -3 3 -63 -22 -133 -54 -71 -33 -139 -63 -151
-66 -17 -6 0 36 104 239 l124 245 -29 0 c-16 0 -63 3 -104 6 -41 4 -78 3 -81
-2z"/>
</g>
</svg>
