<?xml version="1.0" standalone="no"?>
<!DOCTYPE svg PUBLIC "-//W3C//DTD SVG 20010904//EN"
 "http://www.w3.org/TR/2001/REC-SVG-20010904/DTD/svg10.dtd">
<svg version="1.0" xmlns="http://www.w3.org/2000/svg"
 width="250.000000pt" height="250.000000pt" viewBox="0 0 250.000000 250.000000"
 preserveAspectRatio="xMidYMid meet">

<g transform="translate(0.000000,250.000000) scale(0.100000,-0.100000)"
fill="#000000" stroke="none">
<path d="M1203 2173 c-14 -16 -32 -42 -42 -60 -15 -31 -95 -170 -116 -205 -5
-9 -32 -56 -60 -104 -27 -48 -61 -107 -75 -130 -14 -23 -46 -80 -73 -126 -26
-45 -58 -101 -72 -123 -13 -22 -47 -80 -75 -130 -81 -142 -189 -329 -200 -345
-5 -8 -31 -53 -57 -99 -54 -95 -73 -128 -158 -273 -33 -57 -62 -107 -65 -113
-3 -5 -13 -22 -24 -38 -25 -37 -24 -77 4 -99 21 -17 73 -18 1065 -18 1025 0
1042 0 1060 20 27 30 15 71 -64 205 -39 66 -91 156 -116 200 -25 44 -59 103
-75 130 -16 28 -51 87 -77 133 -27 46 -59 102 -73 126 -14 23 -47 82 -75 130
-27 48 -54 95 -60 104 -19 32 -109 187 -125 214 -60 106 -115 200 -140 243
-29 48 -109 186 -140 243 -86 152 -114 171 -167 115z m195 -433 c30 -52 63
-108 73 -125 10 -16 40 -68 66 -114 26 -47 59 -104 73 -127 14 -23 49 -85 78
-136 29 -51 64 -111 77 -133 14 -22 45 -76 70 -120 72 -126 184 -319 194 -335
6 -8 35 -59 65 -112 l54 -98 -900 0 -900 0 20 33 c12 17 41 68 66 112 26 44
60 103 76 130 16 28 51 88 77 134 27 46 59 102 73 126 14 23 47 80 73 126 26
46 52 91 58 99 10 16 114 195 196 339 26 47 59 104 73 127 14 24 54 94 89 156
35 62 73 126 84 141 l19 28 46 -78 c25 -43 70 -121 100 -173z"/>
<path d="M991 1347 c-18 -31 -26 -62 -29 -117 -5 -92 7 -139 54 -210 47 -71
62 -140 46 -211 -7 -29 -20 -62 -30 -72 -16 -18 -16 -20 7 -38 32 -26 54 -11
75 53 29 91 30 130 7 203 -12 38 -33 82 -46 99 -60 80 -70 164 -30 248 23 48
24 53 8 70 -24 27 -35 22 -62 -25z"/>
<path d="M1203 1338 c-24 -45 -28 -65 -27 -133 0 -85 12 -119 67 -200 39 -58
50 -129 31 -201 -8 -32 -20 -64 -26 -71 -8 -10 -6 -18 7 -33 28 -30 39 -25 68
35 50 101 34 234 -38 330 -48 63 -56 143 -24 237 20 59 20 63 3 75 -27 20 -32
17 -61 -39z"/>
<path d="M1434 1364 c-22 -32 -44 -117 -44 -164 0 -49 28 -140 50 -165 62 -68
81 -196 41 -268 -26 -47 -26 -59 1 -76 19 -12 24 -11 40 9 31 39 51 127 45
198 -6 62 -43 147 -85 194 -9 11 -17 46 -20 94 -4 65 -1 83 19 126 23 49 23
50 4 64 -26 19 -32 18 -51 -12z"/>
<path d="M820 580 l0 -50 446 0 445 0 -3 48 -3 47 -442 3 -443 2 0 -50z"/>
</g>
</svg>
