<?xml version="1.0" standalone="no"?>
<!DOCTYPE svg PUBLIC "-//W3C//DTD SVG 20010904//EN"
 "http://www.w3.org/TR/2001/REC-SVG-20010904/DTD/svg10.dtd">
<svg version="1.0" xmlns="http://www.w3.org/2000/svg"
 width="250.000000pt" height="267.000000pt" viewBox="0 0 250.000000 267.000000"
 preserveAspectRatio="xMidYMid meet">

<g transform="translate(0.000000,267.000000) scale(0.100000,-0.100000)"
fill="#000000" stroke="none">
<path d="M1208 2128 c-13 -18 -38 -58 -55 -88 -16 -30 -66 -119 -111 -197 -45
-78 -82 -146 -82 -151 0 -5 -9 -17 -20 -27 -11 -10 -20 -23 -20 -29 0 -5 -11
-26 -24 -45 -24 -37 -163 -276 -202 -346 -12 -22 -61 -107 -109 -190 -187
-318 -190 -326 -163 -353 9 -9 207 -12 830 -12 l818 0 10 26 c9 22 5 35 -18
78 -75 134 -86 153 -101 176 -9 13 -32 53 -51 87 -73 131 -165 290 -197 340
-18 29 -33 55 -33 58 0 4 -34 62 -75 130 -41 68 -75 127 -75 130 0 3 -11 22
-23 43 -13 20 -35 57 -49 82 -194 345 -201 353 -250 288z m97 -202 c17 -29 68
-119 115 -199 47 -81 92 -160 100 -175 8 -14 29 -49 46 -77 16 -27 59 -101 95
-162 35 -62 83 -145 106 -185 23 -40 51 -91 63 -113 12 -22 28 -47 35 -55 12
-15 95 -168 95 -176 0 -2 -319 -4 -710 -4 -561 0 -710 3 -710 13 0 6 18 40 40
75 22 34 40 66 40 69 0 3 18 34 40 69 22 35 40 66 40 69 0 3 28 52 62 108 33
56 74 127 91 157 16 30 33 60 38 65 7 9 131 226 187 325 14 25 44 77 67 115
23 39 55 94 71 123 33 60 30 62 89 -42z"/>
<path d="M1145 1574 c-104 -38 -167 -178 -120 -268 10 -18 13 -41 9 -67 -5
-32 -2 -45 18 -71 28 -37 41 -68 30 -68 -20 0 -119 33 -141 47 -28 18 -39 9
-43 -36 -3 -33 -2 -35 34 -37 59 -4 178 -43 178 -58 0 -15 -97 -54 -145 -58
-24 -2 -29 -7 -27 -23 2 -11 4 -25 4 -32 2 -20 26 -23 55 -8 16 8 53 26 83 39
l55 25 21 -26 c17 -22 31 -27 81 -31 56 -4 63 -2 93 25 l34 30 84 -39 c47 -22
88 -36 93 -31 4 4 9 21 11 38 3 28 0 30 -37 36 -57 9 -135 41 -135 55 0 18
182 70 201 58 16 -10 29 17 22 46 -8 34 -19 45 -35 33 -13 -10 -134 -53 -150
-53 -14 0 -9 18 18 57 21 31 25 46 21 82 -3 31 0 52 11 69 23 35 20 109 -6
164 -24 49 -77 92 -133 108 -48 14 -137 11 -184 -6z m176 -6 c98 -33 155 -111
147 -199 -3 -28 -11 -56 -17 -62 -10 -9 -11 -1 -5 39 4 33 2 58 -5 70 -9 15
-11 1 -7 -66 3 -47 8 -101 11 -121 7 -34 5 -37 -39 -65 -25 -16 -47 -38 -50
-50 -15 -57 -193 -59 -211 -3 -4 11 -27 33 -52 50 -43 30 -45 33 -38 68 3 20
8 74 12 120 4 65 2 82 -7 76 -9 -6 -11 -26 -7 -69 l6 -61 -19 24 c-27 32 -25
81 5 140 49 97 171 145 276 109z m-306 -465 c39 -14 74 -29 79 -34 21 -19 -6
-19 -72 0 -38 12 -79 21 -91 21 -16 0 -21 6 -21 26 0 21 4 25 18 19 9 -4 49
-18 87 -32z m109 15 c9 -12 16 -35 16 -51 0 -15 3 -26 8 -23 4 2 18 -2 32 -10
14 -7 21 -13 17 -14 -5 0 -17 5 -28 10 -23 13 -25 3 -2 -22 12 -14 31 -18 80
-18 55 0 68 4 88 25 14 13 25 35 25 49 0 33 17 76 30 76 11 0 8 -18 -17 -110
-28 -99 -96 -141 -178 -110 -28 11 -61 73 -89 168 -16 55 -8 67 18 30z m464
-3 c1 -21 -3 -25 -26 -25 -15 0 -45 -6 -67 -14 -67 -22 -95 -27 -95 -16 0 11
8 15 115 56 75 28 70 28 73 -1z m-378 -65 c0 -5 -2 -10 -4 -10 -3 0 -8 5 -11
10 -3 6 -1 10 4 10 6 0 11 -4 11 -10z m30 0 c0 -5 -5 -10 -11 -10 -5 0 -7 5
-4 10 3 6 8 10 11 10 2 0 4 -4 4 -10z m35 0 c3 -5 -1 -10 -9 -10 -9 0 -16 5
-16 10 0 6 4 10 9 10 6 0 13 -4 16 -10z m55 -14 c0 -2 -7 -7 -16 -10 -8 -3
-12 -2 -9 4 6 10 25 14 25 6z m-93 -28 c-3 -8 -6 -5 -6 6 -1 11 2 17 5 13 3
-3 4 -12 1 -19z m-107 -26 c0 -4 -36 -25 -81 -47 -67 -32 -82 -36 -90 -24 -13
21 -11 29 9 29 10 0 45 11 78 25 62 26 84 30 84 17z m316 -18 c36 -14 72 -23
79 -20 16 6 20 -11 7 -32 -7 -10 -26 -4 -85 24 -42 20 -77 40 -77 45 0 13 4
12 76 -17z"/>
<path d="M1135 1298 c-38 -22 -38 -44 1 -83 31 -31 84 4 84 56 0 36 -44 50
-85 27z"/>
<path d="M1287 1297 c-15 -10 -16 -17 -6 -45 15 -44 43 -58 74 -38 36 24 42
56 15 78 -26 21 -59 23 -83 5z"/>
<path d="M1224 1196 c-8 -14 -14 -35 -12 -48 2 -19 9 -23 38 -23 29 0 36 4 38
23 4 24 -22 72 -38 72 -5 0 -17 -11 -26 -24z"/>
</g>
</svg>
