<?xml version="1.0" encoding="UTF-8"?>
<svg version="1.1" xmlns="http://www.w3.org/2000/svg" width="225" height="225">
<path d="M0 0 C74.25 0 148.5 0 225 0 C225 74.25 225 148.5 225 225 C150.75 225 76.5 225 0 225 C0 150.75 0 76.5 0 0 Z " fill="#FEFEFE" transform="translate(0,0)"/>
<path d="M0 0 C1.0725 0.44601563 2.145 0.89203125 3.25 1.3515625 C20.47760468 9.21824933 33.73102148 23.95445206 40.35546875 41.61328125 C45.9692871 59.5085939 46.3986414 78.59949153 39 96 C38.33097656 97.61068359 38.33097656 97.61068359 37.6484375 99.25390625 C30.49037604 114.90966636 17.1608648 128.36207627 1.06347656 134.77099609 C-3.24116635 136.34604272 -7.59837401 137.71971936 -12 139 C-12.61415771 139.18030762 -13.22831543 139.36061523 -13.86108398 139.54638672 C-18.50141065 140.53048978 -23.3384047 140.22804023 -28.0625 140.25 C-29.14466797 140.270625 -30.22683594 140.29125 -31.34179688 140.3125 C-51.05044001 140.40708257 -67.4886784 131.52584489 -81.68359375 118.375 C-95.29028905 104.42412185 -101.30570827 86.40687829 -101.4375 67.3125 C-101.44765137 66.26747314 -101.45780273 65.22244629 -101.46826172 64.14575195 C-101.25024633 44.68250519 -92.36234007 28.33483582 -79.375 14.31640625 C-69.94642034 5.12043958 -57.68205074 -0.80651259 -45 -4 C-44.40477539 -4.17055908 -43.80955078 -4.34111816 -43.19628906 -4.5168457 C-29.05839651 -7.62699348 -13.1693189 -5.65682107 0 0 Z " fill="#FCFCFC" transform="translate(141,45)"/>
<path d="M0 0 C1.0725 0.44601563 2.145 0.89203125 3.25 1.3515625 C20.47760468 9.21824933 33.73102148 23.95445206 40.35546875 41.61328125 C45.9692871 59.5085939 46.3986414 78.59949153 39 96 C38.33097656 97.61068359 38.33097656 97.61068359 37.6484375 99.25390625 C30.49037604 114.90966636 17.1608648 128.36207627 1.06347656 134.77099609 C-3.24116635 136.34604272 -7.59837401 137.71971936 -12 139 C-12.61415771 139.18030762 -13.22831543 139.36061523 -13.86108398 139.54638672 C-18.50141065 140.53048978 -23.3384047 140.22804023 -28.0625 140.25 C-29.14466797 140.270625 -30.22683594 140.29125 -31.34179688 140.3125 C-51.05044001 140.40708257 -67.4886784 131.52584489 -81.68359375 118.375 C-95.29028905 104.42412185 -101.30570827 86.40687829 -101.4375 67.3125 C-101.44765137 66.26747314 -101.45780273 65.22244629 -101.46826172 64.14575195 C-101.25024633 44.68250519 -92.36234007 28.33483582 -79.375 14.31640625 C-69.94642034 5.12043958 -57.68205074 -0.80651259 -45 -4 C-44.40477539 -4.17055908 -43.80955078 -4.34111816 -43.19628906 -4.5168457 C-29.05839651 -7.62699348 -13.1693189 -5.65682107 0 0 Z M-76 26 C-88.79979835 41.61924711 -92.68198691 58.15731485 -91 78 C-88.08125822 94.85225911 -77.87243925 109.91899731 -64.04882812 119.7824707 C-49.6637534 129.35161982 -32.86026886 132.78568736 -15.78076172 129.58398438 C-11.32438468 128.49279869 -7.1917949 126.87409618 -3 125 C-2.02933594 124.5771875 -1.05867188 124.154375 -0.05859375 123.71875 C16.2012233 115.76231036 26.03467157 101.71185642 32 85 C36.86916767 70.78683098 34.95266218 54.56302776 29 41 C20.07142477 23.54164445 5.68682506 12.43565553 -12.7109375 6.390625 C-17.89817589 4.87631405 -22.73904028 4.4599123 -28.125 4.5 C-29.0329834 4.50572021 -29.9409668 4.51144043 -30.87646484 4.51733398 C-48.88116795 4.98698064 -63.6105337 13.08106933 -76 26 Z " fill="#040404" transform="translate(141,45)"/>
<path d="M0 0 C-0.47269927 8.34097148 -2.37998602 16.12889264 -4.5 24.1875 C-5.13871332 26.63846619 -5.77423312 29.09026726 -6.40625 31.54296875 C-6.68791016 32.61571045 -6.96957031 33.68845215 -7.25976562 34.79370117 C-8.04206529 38.1822043 -8.55420758 41.55244803 -9 45 C-7.25328412 45.79356801 -7.25328412 45.79356801 -5 46 C-1.30240822 44.23136411 -1.30240822 44.23136411 1 41 C2.32 41.33 3.64 41.66 5 42 C3.16885517 48.99164388 -0.22782879 53.14398642 -6.25 56.875 C-10.82138748 59.21774101 -14.93329011 60.21677086 -20 59 C-23.05924178 57.2555267 -25.39983676 55.20032648 -27 52 C-27.26265158 46.4227579 -26.68797011 41.8301274 -25.25 36.39453125 C-25.07243164 35.70743576 -24.89486328 35.02034027 -24.71191406 34.31242371 C-24.15036565 32.14328567 -23.57630665 29.9777595 -23 27.8125 C-22.42500265 25.63624115 -21.85295914 23.45935093 -21.28808594 21.28044128 C-20.77704041 19.31122624 -20.25598462 17.34461702 -19.734375 15.37817383 C-19.09520276 12.43793903 -18.84053129 9.98825844 -19 7 C-21.64 6.67 -24.28 6.34 -27 6 C-27 5.01 -27 4.02 -27 3 C-18.16617697 0.40181675 -9.17823886 -0.08268684 0 0 Z " fill="#050505" transform="translate(123,98)"/>
<path d="M0 0 C2.80907699 1.76119659 3.33896525 2.89940179 5 6 C5.35850772 9.23777282 5.05445813 11.91863902 4 15 C1.35928556 18.10672287 -0.5363667 18.86512486 -4.4375 20 C-8.90594249 20 -10.6462321 18.88580029 -14 16 C-16.34965355 12.79592697 -16.54561533 9.89725235 -16 6 C-11.74689622 -0.81445253 -7.53527392 -2.06214897 0 0 Z " fill="#070707" transform="translate(124,69)"/>
</svg>
